<svg xmlns="http://www.w3.org/2000/svg" viewBox="0 0 64 64">
  <defs>
    <linearGradient id="g" x1="0" x2="1" y1="0" y2="1">
      <stop offset="0%" stop-color="#001C38"/>
      <stop offset="100%" stop-color="#D6DF20"/>
    </linearGradient>
  </defs>
  <rect width="64" height="64" rx="12" fill="url(#g)"/>
  <g fill="#fff">
    <path d="M20 24c0-2.209 1.791-4 4-4h16a4 4 0 0 1 0 8H28c-2.209 0-4 1.791-4 4s1.791 4 4 4h8a4 4 0 1 1 0 8H24a4 4 0 1 1 0-8h12a4 4 0 1 0 0-8H24c-2.209 0-4-1.791-4-4z"/>
  </g>
</svg>
